#tb 0: 1/25
#media_type 0: video
#codec_id 0: rawvideo
#dimensions 0: 352x288
#sar 0: 0/1
0,          0,          0,        1,   152064, 0x77bb80f8
0,          1,          1,        1,   152064, 0x3a21f6e8
0,          2,          2,        1,   152064, 0xcc0907b0
0,          3,          3,        1,   152064, 0xaa5cd87b
0,          4,          4,        1,   152064, 0x410bd74d
0,          5,          5,        1,   152064, 0x7a763b14
0,          6,          6,        1,   152064, 0x3e4020d4
0,          7,          7,        1,   152064, 0x46be8b5d
0,          8,          8,        1,   152064, 0x8021f16c
0,          9,          9,        1,   152064, 0x82ca033d
0,         10,         10,        1,   152064, 0xa76ca6ca
0,         11,         11,        1,   152064, 0x49019bb7
0,         12,         12,        1,   152064, 0x3590adf5
0,         13,         13,        1,   152064, 0xf21235dc
0,         14,         14,        1,   152064, 0x6b5f93a9
0,         15,         15,        1,   152064, 0x4b8c5137
0,         16,         16,        1,   152064, 0x698b67cc
0,         17,         17,        1,   152064, 0x3cebef62
0,         18,         18,        1,   152064, 0x77770da1
0,         19,         19,        1,   152064, 0xecdd84d4
0,         20,         20,        1,   152064, 0x873fbc32
0,         21,         21,        1,   152064, 0x55043c82
0,         22,         22,        1,   152064, 0xee2b3669
0,         23,         23,        1,   152064, 0xa64ae990
0,         24,         24,        1,   152064, 0xb3499e12
